<svg viewBox="0 0 512 512" xmlns="http://www.w3.org/2000/svg">
    <defs>
        <style>
            .cls-1{fill:none;}.cls-2{clip-path:url(#clip-path);}.cls-3{fill:#44A74E;}.cls-4{fill:#FFD700;}.cls-5{fill:#FF8C00;}.cls-6{fill:#228B22;}
        </style>
        <clipPath id="clip-path">
            <rect class="cls-1" height="460" id="SVGID" width="434.65" x="38.68" y="26" />
        </clipPath>
    </defs>
    <title />
    <g id="Google">
        <g id="Gwallet">
            <g class="cls-2">
                <path class="cls-3"
                    d="M212,437.71c-21.73,0-41.05-16.91-42.26-39.85C161.28,268.68,61.07,216.76,61.07,215.55c-20.53-10.86-29-36.22-18.11-56.74s36.22-29,56.74-18.11c6,3.62,143.68,76.06,154.54,252.33,1.21,22.94-16.9,43.47-39.84,44.68Z" />
            </g>
            <path class="cls-4"
                d="M212,437.49a42.63,42.63,0,0,1-22.94-7.24c-19.32-12.07-25.36-38.64-12.08-57.95,71.24-109.87,2.42-228.19-1.2-233-12.08-20.53-6-45.88,14.49-58s45.87-6,58,14.49c3.62,7.25,99,166.62,0,322.37-8.45,12.07-21.73,19.31-36.22,19.31Z" />
            <g class="cls-2">
                <path class="cls-5"
                    d="M381,485.79c-24.15,0-42.26-19.32-42.26-43.47,3.62-189.55-143.68-286.14-149.71-289.76-19.32-12.07-25.36-38.64-13.28-57.95s38.63-25.36,57.95-13.29c8.45,4.83,193.18,124.36,188.35,362.21,1.20,24.15-16.91,42.26-41.05,42.26Z" />
                <path class="cls-6"
                    d="M381,485.79c-7.25,0-14.49-2.42-21.74-6-20.52-12.07-26.56-37.43-14.48-57.95,94.17-160.58,0-330.82,0-332-10.87-20.53-4.83-45.88,15.69-58s45.88-4.83,57.95,15.7c4.83,8.45,118.32,214.91,0,416.53A43,43,0,0,1,381,485.79Z" />
            </g>
        </g>
    </g>
</svg>
